<?xml version="1.0" standalone="no"?><!DOCTYPE svg PUBLIC "-//W3C//DTD SVG 1.1//EN" "http://www.w3.org/Graphics/SVG/1.1/DTD/svg11.dtd"><svg t="1729866877234" class="icon" viewBox="0 0 1024 1024" version="1.1" xmlns="http://www.w3.org/2000/svg" p-id="3100" xmlns:xlink="http://www.w3.org/1999/xlink" width="200" height="200"><path d="M736.577 610.492c-50.853-65.05-130.596-106.965-220.264-106.965-93.69 0-176.562 45.752-226.946 115.854L63.799 522.867c75.529-172.87 249.706-293.876 452.513-293.876 196.176 0 365.566 113.223 444.794 277.089L736.577 610.492z m-220.264-57.933c69.712 0 132.119 30.838 174.015 79.441l-174.613 81.197 64.525 42.694c-18.186 16.609-42.501 26.764-69.221 26.764-23.814 0-45.718-8.068-63.074-21.569l60.483-47.973-172.259-73.704c41.805-52.859 106.954-86.85 180.144-86.85z" fill="#2c2c2c" p-id="3101"></path></svg>