<?xml version="1.0" standalone="no"?><!DOCTYPE svg PUBLIC "-//W3C//DTD SVG 1.1//EN" "http://www.w3.org/Graphics/SVG/1.1/DTD/svg11.dtd"><svg t="1729867019852" class="icon" viewBox="0 0 1024 1024" version="1.1" xmlns="http://www.w3.org/2000/svg" p-id="4429" xmlns:xlink="http://www.w3.org/1999/xlink" width="200" height="200"><path d="M854.5 825.2c0-84.4-147.3-164.2-332.2-164.2C336.7 661 187 741.3 187 825.2V889h667.5v-63.8z m-332.2-231c203.4 0 399 91.4 399 231v97.2c0 18.4-14.9 33.4-33.4 33.4H153.6c-18.4 0-33.4-14.9-33.4-33.4v-97.2c0-139.6 198.7-231 402.1-231z m-1.6-461.7c-86.1 0-155.8 69.7-155.8 155.8S434.7 444 520.7 444s155.8-69.7 155.8-155.8-69.7-155.7-155.8-155.7z m0-66.7c122.9 0 222.5 99.6 222.5 222.5s-99.6 222.5-222.5 222.5-222.5-99.6-222.5-222.5S397.8 65.8 520.7 65.8z" p-id="4430" fill="#2c2c2c"></path></svg>